<mxfile host="Electron" modified="2023-07-15T13:20:06.399Z" agent="Mozilla/5.0 (Windows NT 10.0; Win64; x64) AppleWebKit/537.36 (KHTML, like Gecko) draw.io/21.6.1 Chrome/112.0.5615.204 Electron/24.6.1 Safari/537.36" etag="mpgJwxbMQ1x3edbVOMQF" version="21.6.1" type="device">
  <diagram name="Страница 1" id="FtmXjkel1YvT4oUsDJJt">
    <mxGraphModel dx="940" dy="1673" grid="1" gridSize="10" guides="1" tooltips="1" connect="1" arrows="1" fold="1" page="1" pageScale="1" pageWidth="827" pageHeight="1169" math="0" shadow="0">
      <root>
        <mxCell id="0" />
        <mxCell id="1" parent="0" />
        <mxCell id="uUJNf5cgKkHFDg8ed2A1-3" style="edgeStyle=orthogonalEdgeStyle;rounded=0;orthogonalLoop=1;jettySize=auto;html=1;exitX=0.5;exitY=1;exitDx=0;exitDy=0;" parent="1" source="uUJNf5cgKkHFDg8ed2A1-1" target="uUJNf5cgKkHFDg8ed2A1-2" edge="1">
          <mxGeometry relative="1" as="geometry" />
        </mxCell>
        <mxCell id="uUJNf5cgKkHFDg8ed2A1-1" value="&lt;u style=&quot;font-weight: bold;&quot;&gt;domain-layer&lt;/u&gt;&lt;br&gt;&lt;u style=&quot;font-weight: bold;&quot;&gt;data-layer&lt;/u&gt;&lt;span style=&quot;background-color: initial;&quot;&gt;&lt;br&gt;&lt;div style=&quot;text-align: left;&quot;&gt;&lt;ul&gt;&lt;li&gt;&lt;span style=&quot;background-color: initial;&quot;&gt;jooq + hibernate&amp;nbsp; &amp;nbsp; &amp;nbsp; &amp;nbsp; &amp;nbsp; &amp;nbsp; &amp;nbsp; &amp;nbsp; &amp;nbsp; &amp;nbsp; &amp;nbsp;&lt;/span&gt;&lt;/li&gt;&lt;li&gt;&lt;span style=&quot;background-color: initial;&quot;&gt;cache&lt;/span&gt;&lt;/li&gt;&lt;/ul&gt;&lt;/div&gt;&lt;/span&gt;" style="rounded=0;whiteSpace=wrap;html=1;" parent="1" vertex="1">
          <mxGeometry x="179.5" y="250" width="200" height="100" as="geometry" />
        </mxCell>
        <mxCell id="uUJNf5cgKkHFDg8ed2A1-2" value="&lt;b style=&quot;text-decoration-line: underline;&quot;&gt;postgresql&lt;/b&gt;&lt;br&gt;&lt;b style=&quot;text-decoration-line: underline;&quot;&gt;or inmemory&lt;/b&gt;&lt;br&gt;&lt;br&gt;&lt;div style=&quot;text-align: left;&quot;&gt;&lt;span style=&quot;background-color: initial;&quot;&gt;users&lt;/span&gt;&lt;/div&gt;&lt;div style=&quot;text-align: left;&quot;&gt;&lt;span style=&quot;background-color: initial;&quot;&gt;notes&lt;/span&gt;&lt;/div&gt;&lt;div style=&quot;text-align: left;&quot;&gt;&lt;span style=&quot;background-color: initial;&quot;&gt;notes_groups&lt;/span&gt;&lt;/div&gt;" style="shape=cylinder3;whiteSpace=wrap;html=1;boundedLbl=1;backgroundOutline=1;size=15;" parent="1" vertex="1">
          <mxGeometry x="180" y="430" width="200" height="210" as="geometry" />
        </mxCell>
        <mxCell id="uUJNf5cgKkHFDg8ed2A1-99" style="edgeStyle=orthogonalEdgeStyle;rounded=0;orthogonalLoop=1;jettySize=auto;html=1;exitX=0.5;exitY=1;exitDx=0;exitDy=0;entryX=0.5;entryY=0;entryDx=0;entryDy=0;" parent="1" source="uUJNf5cgKkHFDg8ed2A1-4" target="uUJNf5cgKkHFDg8ed2A1-97" edge="1">
          <mxGeometry relative="1" as="geometry">
            <Array as="points">
              <mxPoint x="130" y="-40" />
              <mxPoint x="280" y="-40" />
            </Array>
          </mxGeometry>
        </mxCell>
        <mxCell id="uUJNf5cgKkHFDg8ed2A1-4" value="mobile" style="rounded=0;whiteSpace=wrap;html=1;" parent="1" vertex="1">
          <mxGeometry x="70" y="-140" width="120" height="60" as="geometry" />
        </mxCell>
        <mxCell id="uUJNf5cgKkHFDg8ed2A1-28" style="edgeStyle=orthogonalEdgeStyle;rounded=0;orthogonalLoop=1;jettySize=auto;html=1;exitX=1;exitY=0.25;exitDx=0;exitDy=0;entryX=0;entryY=0.5;entryDx=0;entryDy=0;entryPerimeter=0;" parent="1" source="uUJNf5cgKkHFDg8ed2A1-6" target="uUJNf5cgKkHFDg8ed2A1-17" edge="1">
          <mxGeometry relative="1" as="geometry" />
        </mxCell>
        <mxCell id="uUJNf5cgKkHFDg8ed2A1-96" style="edgeStyle=orthogonalEdgeStyle;rounded=0;orthogonalLoop=1;jettySize=auto;html=1;exitX=1;exitY=0.5;exitDx=0;exitDy=0;entryX=0.07;entryY=0.4;entryDx=0;entryDy=0;entryPerimeter=0;" parent="1" source="uUJNf5cgKkHFDg8ed2A1-6" target="uUJNf5cgKkHFDg8ed2A1-25" edge="1">
          <mxGeometry relative="1" as="geometry" />
        </mxCell>
        <mxCell id="uUJNf5cgKkHFDg8ed2A1-6" value="&lt;b&gt;&lt;u&gt;jwt auth service&lt;/u&gt;&lt;/b&gt;&lt;br&gt;&lt;ul&gt;&lt;li style=&quot;text-align: left;&quot;&gt;&lt;span style=&quot;background-color: initial;&quot;&gt;контроль сессий ?&lt;/span&gt;&lt;/li&gt;&lt;li style=&quot;text-align: left;&quot;&gt;&lt;span style=&quot;background-color: initial;&quot;&gt;запись пользователя в бд&lt;/span&gt;&lt;/li&gt;&lt;li style=&quot;text-align: left;&quot;&gt;генерация jwt&lt;/li&gt;&lt;li style=&quot;text-align: left;&quot;&gt;&lt;span style=&quot;background-color: initial;&quot;&gt;spring oauth client&amp;nbsp; &amp;nbsp; &amp;nbsp; &amp;nbsp; &amp;nbsp; &amp;nbsp; &amp;nbsp; &amp;nbsp; &amp;nbsp;&amp;nbsp;&lt;/span&gt;&lt;/li&gt;&lt;/ul&gt;" style="rounded=0;whiteSpace=wrap;html=1;" parent="1" vertex="1">
          <mxGeometry x="180" y="120" width="200" height="120" as="geometry" />
        </mxCell>
        <mxCell id="uUJNf5cgKkHFDg8ed2A1-17" value="redis" style="shape=cylinder3;whiteSpace=wrap;html=1;boundedLbl=1;backgroundOutline=1;size=15;dashed=1;" parent="1" vertex="1">
          <mxGeometry x="470" y="110" width="60" height="80" as="geometry" />
        </mxCell>
        <mxCell id="uUJNf5cgKkHFDg8ed2A1-25" value="google OAuth" style="ellipse;shape=cloud;whiteSpace=wrap;html=1;" parent="1" vertex="1">
          <mxGeometry x="440" y="200" width="120" height="80" as="geometry" />
        </mxCell>
        <mxCell id="uUJNf5cgKkHFDg8ed2A1-98" style="edgeStyle=orthogonalEdgeStyle;rounded=0;orthogonalLoop=1;jettySize=auto;html=1;exitX=0.5;exitY=1;exitDx=0;exitDy=0;entryX=0.5;entryY=0;entryDx=0;entryDy=0;" parent="1" source="uUJNf5cgKkHFDg8ed2A1-92" target="uUJNf5cgKkHFDg8ed2A1-97" edge="1">
          <mxGeometry relative="1" as="geometry" />
        </mxCell>
        <mxCell id="uUJNf5cgKkHFDg8ed2A1-92" value="web" style="rounded=0;whiteSpace=wrap;html=1;" parent="1" vertex="1">
          <mxGeometry x="220" y="-140" width="120" height="60" as="geometry" />
        </mxCell>
        <mxCell id="uUJNf5cgKkHFDg8ed2A1-94" style="edgeStyle=orthogonalEdgeStyle;rounded=0;orthogonalLoop=1;jettySize=auto;html=1;entryX=0.5;entryY=0;entryDx=0;entryDy=0;" parent="1" source="uUJNf5cgKkHFDg8ed2A1-93" target="uUJNf5cgKkHFDg8ed2A1-97" edge="1">
          <mxGeometry relative="1" as="geometry">
            <Array as="points">
              <mxPoint x="450" y="-40" />
              <mxPoint x="280" y="-40" />
            </Array>
          </mxGeometry>
        </mxCell>
        <mxCell id="uUJNf5cgKkHFDg8ed2A1-93" value="cli" style="rounded=0;whiteSpace=wrap;html=1;" parent="1" vertex="1">
          <mxGeometry x="370" y="-140" width="120" height="60" as="geometry" />
        </mxCell>
        <mxCell id="uUJNf5cgKkHFDg8ed2A1-97" value="&lt;u style=&quot;font-weight: bold;&quot;&gt;api-gateway&lt;/u&gt;&lt;br&gt;&lt;div style=&quot;text-align: left;&quot;&gt;&lt;ul&gt;&lt;li&gt;&lt;span style=&quot;background-color: initial;&quot;&gt;REST контроллер&amp;nbsp; &amp;nbsp; &amp;nbsp; &amp;nbsp; &amp;nbsp; &amp;nbsp; &amp;nbsp; &amp;nbsp; &amp;nbsp;&lt;/span&gt;&lt;/li&gt;&lt;li&gt;&lt;span style=&quot;background-color: initial;&quot;&gt;WS контроллер&lt;/span&gt;&lt;/li&gt;&lt;/ul&gt;&lt;/div&gt;" style="rounded=0;whiteSpace=wrap;html=1;" parent="1" vertex="1">
          <mxGeometry x="180.5" y="30" width="199" height="80" as="geometry" />
        </mxCell>
        <mxCell id="uUJNf5cgKkHFDg8ed2A1-100" value="java 20&lt;br&gt;spring boot 3.1.1&lt;br&gt;postgresql / sqlite" style="text;html=1;strokeColor=none;fillColor=none;align=left;verticalAlign=middle;whiteSpace=wrap;rounded=0;" parent="1" vertex="1">
          <mxGeometry x="540" y="-170" width="160" height="155" as="geometry" />
        </mxCell>
      </root>
    </mxGraphModel>
  </diagram>
</mxfile>
